<?xml version="1.0" standalone="no"?>
<!DOCTYPE svg PUBLIC "-//W3C//DTD SVG 20010904//EN"
 "http://www.w3.org/TR/2001/REC-SVG-20010904/DTD/svg10.dtd">
<svg version="1.0" xmlns="http://www.w3.org/2000/svg"
 width="700.000000pt" height="700.000000pt" viewBox="0 0 700.000000 700.000000"
 preserveAspectRatio="xMidYMid meet">
<metadata>
Created by potrace 1.14, written by Peter Selinger 2001-2017
</metadata>
<g transform="translate(0.000000,700.000000) scale(0.100000,-0.100000)"
fill="#000000" stroke="none">
<path d="M3387 6914 c-1 -1 -56 -5 -121 -8 -66 -4 -122 -9 -125 -10 -4 -2 -33
-6 -66 -10 -72 -7 -188 -28 -310 -55 -322 -71 -622 -188 -950 -371 -100 -55
-415 -275 -445 -309 -3 -4 -34 -31 -70 -61 -133 -111 -335 -324 -474 -500 -54
-68 -226 -324 -226 -336 0 -3 -8 -18 -19 -32 -66 -94 -214 -419 -283 -622 -39
-116 -110 -386 -123 -470 -4 -25 -9 -54 -11 -65 -2 -10 -6 -37 -9 -60 -4 -22
-8 -51 -10 -65 -29 -201 -35 -623 -10 -795 2 -16 7 -56 10 -88 4 -32 8 -68 11
-80 2 -12 11 -65 20 -117 61 -364 218 -787 419 -1130 294 -501 742 -945 1242
-1229 110 -62 376 -191 395 -191 8 0 18 -4 23 -9 16 -16 271 -100 413 -136
122 -32 293 -64 417 -80 28 -3 64 -8 80 -10 144 -21 515 -21 690 0 22 3 63 7
90 10 28 3 86 13 130 21 44 8 96 17 115 20 118 19 429 112 581 174 445 183
792 413 1130 750 330 329 567 681 742 1100 140 337 215 639 254 1020 16 152 8
648 -12 752 -2 11 -7 39 -9 62 -5 40 -29 175 -41 226 -3 14 -7 36 -10 50 -19
103 -97 355 -157 505 -52 131 -154 343 -206 429 -23 37 -42 70 -42 72 0 9
-120 189 -183 274 -363 489 -871 889 -1412 1110 -55 23 -109 45 -120 50 -67
30 -340 112 -419 126 -16 3 -32 7 -36 9 -4 2 -22 7 -41 10 -194 33 -264 44
-319 50 -36 3 -87 9 -115 11 -50 6 -383 12 -388 8z m413 -278 c36 -3 76 -8 90
-11 14 -2 48 -7 75 -10 43 -5 85 -13 220 -39 264 -52 628 -194 894 -349 659
-385 1153 -995 1395 -1721 68 -203 125 -446 142 -610 3 -33 7 -67 9 -77 6 -32
18 -263 18 -349 -1 -90 -11 -306 -17 -337 -2 -10 -7 -40 -10 -68 -20 -146 -29
-196 -62 -335 -106 -445 -316 -870 -612 -1240 -99 -124 -351 -375 -474 -473
-339 -270 -754 -482 -1140 -583 -35 -9 -70 -18 -78 -20 -51 -14 -264 -54 -313
-59 -32 -4 -68 -8 -80 -10 -40 -8 -222 -18 -332 -18 -115 0 -343 11 -354 17
-3 2 -33 7 -66 10 -92 11 -107 13 -166 25 -30 6 -63 13 -74 15 -72 14 -208 51
-312 85 -604 196 -1144 584 -1535 1101 -254 337 -432 710 -537 1126 -32 128
-58 266 -67 354 -3 30 -7 61 -9 67 -23 70 -23 621 -1 728 2 12 7 48 11 80 4
33 9 69 11 80 2 11 7 34 10 50 92 522 336 1039 689 1464 86 104 286 307 363
368 26 21 49 41 52 44 11 12 209 158 260 191 75 49 189 118 195 118 3 0 27 14
55 31 27 17 100 53 162 80 62 28 122 54 133 59 88 42 381 131 540 164 115 24
246 42 360 52 44 3 81 7 83 9 5 4 406 -3 472 -9z"/>
<path d="M4162 4329 c-20 -6 -60 -38 -105 -85 -81 -84 -143 -119 -227 -128
-85 -9 -92 -23 -86 -165 5 -115 10 -129 46 -132 8 0 37 -2 64 -4 27 -2 53 -9
57 -17 5 -7 9 -188 8 -403 0 -214 3 -403 7 -420 19 -80 76 -115 199 -122 67
-4 85 -2 98 12 15 14 17 61 16 461 -1 398 0 447 15 462 9 9 42 19 81 23 36 3
69 9 72 13 9 9 9 263 0 272 -4 4 -38 7 -76 6 -91 -3 -95 3 -93 125 2 117 -2
123 -76 102z"/>
<path d="M4995 4120 c-51 -13 -79 -27 -128 -64 l-47 -36 0 34 c0 45 -13 49
-169 48 -91 -1 -128 -5 -138 -15 -12 -11 -14 -115 -13 -602 0 -517 2 -592 16
-613 15 -23 20 -24 107 -20 109 4 143 18 174 73 22 39 22 45 23 430 0 348 2
393 18 425 31 63 129 64 154 1 7 -17 11 -184 12 -464 1 -517 -12 -470 133
-465 102 3 132 17 168 78 18 32 19 56 20 425 1 419 4 442 51 464 39 17 70 13
101 -13 l28 -24 3 -448 c3 -395 5 -451 19 -466 13 -14 32 -18 87 -18 127 0
178 26 200 102 17 60 15 915 -2 975 -20 68 -70 124 -142 160 -122 61 -222 51
-321 -34 l-52 -44 -41 39 c-62 60 -179 92 -261 72z"/>
<path d="M3099 4115 c-3 -2 -46 -6 -97 -8 -51 -2 -98 -9 -104 -15 -13 -13 -14
-549 -2 -606 11 -54 52 -123 91 -155 59 -49 120 -67 236 -70 56 -1 107 -7 114
-13 18 -15 16 -73 -3 -89 -11 -9 -48 -14 -113 -14 -133 -2 -164 -14 -199 -80
-22 -41 -24 -202 -3 -210 24 -9 332 -4 391 7 110 20 177 75 216 178 15 40 18
102 21 540 1 277 -1 501 -6 509 -13 20 -269 20 -282 0 -5 -8 -8 -119 -8 -247
1 -195 -1 -236 -15 -256 -30 -47 -121 -42 -143 7 -9 19 -11 387 -3 422 4 18 0
50 -8 62 -8 13 -77 45 -83 38z"/>
<path d="M1420 4102 c-102 -13 -176 -71 -200 -156 -8 -30 -12 -189 -13 -553
-1 -429 1 -514 13 -528 21 -25 169 -17 207 11 56 42 68 69 68 154 0 114 10
123 123 118 146 -7 232 21 292 95 53 66 59 108 57 402 -2 261 -3 271 -25 314
-31 57 -72 96 -130 122 -41 19 -66 22 -207 23 -88 1 -171 0 -185 -2z m231
-305 c11 -7 20 -27 23 -52 8 -59 2 -258 -7 -273 -16 -24 -63 -41 -111 -37 -26
1 -50 6 -53 9 -4 3 -6 83 -6 178 1 154 3 173 19 185 21 15 105 9 135 -10z"/>
<path d="M2164 4086 c-15 -11 -19 -25 -17 -68 3 -105 21 -149 71 -180 29 -18
54 -22 146 -25 121 -4 136 -11 136 -64 0 -41 -21 -50 -123 -54 -52 -1 -109 -6
-127 -10 -98 -22 -178 -102 -205 -205 -18 -74 -12 -383 9 -448 26 -78 85 -135
166 -162 59 -20 82 -22 235 -18 160 3 174 5 220 29 53 27 100 88 109 144 3 17
6 235 6 485 l0 454 -23 46 c-16 33 -35 51 -67 68 -42 21 -55 22 -280 22 -188
0 -240 -3 -256 -14z m326 -663 c5 -4 10 -66 12 -136 3 -147 1 -149 -74 -142
-90 8 -102 26 -100 142 1 89 17 125 60 139 36 11 90 10 102 -3z"/>
</g>
</svg>
